<svg width="629" height="119" viewBox="0 0 629 119" fill="none" xmlns="http://www.w3.org/2000/svg">
<g clip-path="url(#clip0_224_327)">
<path d="M181.159 36.3752C162.718 36.3752 147.734 51.3257 147.734 69.8031C147.734 88.2806 162.718 103.231 181.159 103.231C199.652 103.231 214.583 88.2279 214.583 69.8031C214.583 51.3783 199.652 36.3752 181.159 36.3752ZM181.264 89.9125C170.786 89.9125 162.351 80.9107 162.351 69.8031C162.351 58.6956 170.786 49.7464 181.264 49.7464C191.689 49.7464 200.176 58.7482 200.176 69.8558C200.176 80.9633 191.689 89.9125 181.264 89.9125Z" fill="#253959"/>
<path d="M238.159 24.1622V95.0714C238.159 98.9143 235.068 102.02 231.243 102.02C227.419 102.02 224.328 98.9143 224.328 95.0714V24.1622C224.328 20.3193 227.419 17.2134 231.243 17.2134C235.068 17.2134 238.159 20.3193 238.159 24.1622Z" fill="#253959"/>
<path d="M337.858 39.4811V45.6929H350.274C353.942 45.6929 356.928 48.6935 356.928 52.3785C356.928 56.0635 353.942 59.0641 350.274 59.0641H337.858V95.1241C337.858 98.967 334.767 102.073 330.943 102.073C327.118 102.073 324.027 98.967 324.027 95.1241V41.1657C324.027 35.4803 325.232 30.7952 327.537 27.2155C329.843 23.6358 332.724 21.0563 335.972 19.5823C339.168 18.161 342.364 17.3187 345.507 17.2134H353.575C357.242 17.2134 360.228 20.2141 360.228 23.899C360.228 27.584 357.242 30.5846 353.575 30.5846H348.493C341.84 30.5846 338.434 33.3746 337.858 39.4811Z" fill="#253959"/>
<path d="M314.542 69.8557V94.7555C314.542 98.7564 311.294 102.02 307.312 102.02C303.33 102.02 300.082 98.7564 300.082 94.7555V69.8557C300.082 69.5399 300.082 69.224 300.03 68.9608C299.611 58.2744 291.333 49.7464 281.17 49.7464C270.692 49.7464 262.257 58.7482 262.257 69.8557C262.257 80.9633 270.744 89.9651 281.17 89.9651C281.903 89.9651 282.584 89.9124 283.265 89.8598C287.247 89.386 290.757 92.4393 290.757 96.4927C290.757 99.8619 288.242 102.757 284.889 103.126C283.632 103.284 282.375 103.336 281.065 103.336C262.624 103.336 247.641 88.3332 247.641 69.8557C247.641 51.3783 262.624 36.4279 281.065 36.4279C297.882 36.4279 311.87 48.9041 314.175 65.0653C314.437 66.5919 314.542 68.2238 314.542 69.8557Z" fill="#253959"/>
<path d="M17.758 87.9647C17.5485 87.5436 17.2865 87.0698 17.0246 86.4907C16.0816 84.4903 15.191 82.3846 14.4575 80.2263C13.9336 78.6997 12.8334 77.4362 11.3665 76.6993C10.5283 76.2781 9.6377 76.0675 8.69469 76.0675C8.01363 76.0675 7.38496 76.1728 6.75629 76.3834C5.18461 76.9098 3.87488 78.068 3.19382 79.5946C2.82709 80.3842 2.61754 81.2265 2.61754 82.1214C2.61754 82.911 2.7747 83.7007 3.03665 84.4377C3.87488 86.9645 4.92266 89.4387 6.02284 91.755C6.28478 92.334 6.65151 93.0184 6.96584 93.6501C8.01363 95.6505 9.95203 96.9665 11.9952 97.0718C12.1 97.0718 12.2572 97.0718 12.4143 97.0718C15.4529 97.0192 18.1771 94.5976 18.5439 91.597C18.5439 91.4391 18.5963 91.2812 18.5963 91.1759C18.5963 90.1757 18.3343 89.1228 17.758 87.9647ZM65.8514 1.42073C65.2227 0.89431 64.4892 0.525814 63.7558 0.315245C63.2843 0.20996 62.8128 0.104675 62.3413 0.104675H62.2365C61.6602 0.104675 61.0839 0.157318 60.4553 0.157318C49.925 0.683741 39.552 3.78964 30.4886 9.2118C15.0862 18.4242 4.18921 33.9537 0.574355 51.7468C0.521966 51.9047 0.521966 52.0626 0.469577 52.2206C0.469577 52.2206 0.469577 52.3259 0.417188 52.4311C0.417188 52.5364 0.364798 52.6417 0.364798 52.747C0.364798 52.7996 0.364798 52.8523 0.312409 52.9049C0.207631 53.5893 0.155241 54.6421 0.417188 55.8003C0.417188 55.8003 0.417188 55.8003 0.417188 55.8529C1.20303 58.3797 3.56054 60.2222 6.33717 60.2222C7.6469 60.2222 8.90425 59.8011 10.0044 59.0114C11.2094 58.1165 11.9952 56.7478 12.3095 55.1159C12.3619 54.7474 12.4667 54.4316 12.5191 54.0631L12.6239 53.6419C15.6101 39.4285 24.4115 27.0575 36.7229 19.7403C43.8479 15.4762 52.0206 12.9494 60.2981 12.4756C61.0316 12.423 61.8698 12.3703 62.7604 12.3703C63.3367 12.3703 63.9654 12.2651 64.4892 12.0018C66.6372 11.0016 68.1041 8.73802 68.1041 6.31647C68.1565 4.42135 67.3183 2.63151 65.8514 1.42073ZM115.621 28.8474C115.621 27.8472 115.307 26.847 114.678 26.0047C114.207 25.3203 113.683 24.6886 113.106 24.0043C108.077 17.7399 102 12.5809 95.137 8.63273C95.0846 8.58009 94.9798 8.52745 94.9274 8.52745L94.6654 8.36952C94.1939 8.05367 93.6701 7.79045 93.1462 7.52724C91.1554 6.4744 88.7455 6.4744 86.9118 7.68517C86.7547 7.79045 86.6499 7.8431 86.5451 7.94838C84.9734 9.15915 84.0828 10.949 84.0828 12.8968C84.0828 13.3705 84.1352 13.8443 84.24 14.3181C84.6591 16.0553 85.8641 17.4766 87.4357 18.3189C87.8548 18.5295 88.274 18.7927 88.6931 19.0033C94.4559 22.2144 99.4853 26.5311 103.676 31.7427C103.938 32.1112 104.253 32.4797 104.567 32.9008C105.405 34.0063 106.61 34.9013 107.972 35.2171C108.706 35.375 109.492 35.4277 110.277 35.3224C113.421 34.8486 115.621 32.0059 115.621 28.8474ZM126.885 56.5372C126.832 55.9582 126.728 55.3791 126.675 54.8527C126.361 52.5891 124.842 50.5887 122.694 49.8517C121.541 49.4832 120.284 49.3779 119.026 49.7464C116.721 50.3781 115.045 52.3785 114.573 54.7474C114.469 55.3265 114.469 55.8529 114.521 56.4846L114.573 56.8531C115.464 62.9596 115.254 69.1714 113.945 75.2779L113.84 75.6991C113.421 77.2257 112.478 80.0157 112.216 80.858L111.954 81.595C110.906 84.1745 107.239 92.5446 100.847 99.9145L97.966 103.178L95.0846 99.9145C87.1738 90.7548 75.8053 85.3852 63.8082 85.2273H63.7558H63.4415C63.1271 85.1747 62.8652 85.1747 62.6556 85.1747C50.9728 85.1747 41.6475 75.0673 42.8001 63.1175C43.6907 53.9051 50.9728 46.4299 60.0885 45.2718C71.1951 43.9031 81.0442 51.8521 82.4064 62.6438L82.5111 63.644C82.6159 65.3812 82.4064 68.5923 80.7299 72.2247C79.263 75.4358 80.6775 79.2261 83.8209 80.7001C84.6591 81.0686 85.5497 81.2791 86.4403 81.2791C88.9026 81.2791 91.103 79.8051 92.0984 77.5942C93.8272 73.7513 94.8226 69.6978 94.9274 65.5391C94.9274 65.3812 94.9274 65.2759 94.9274 65.1179C94.9274 63.3281 94.7702 61.4856 94.4559 59.7484C91.8888 44.3242 78.8963 33.1114 63.4415 32.6376C46.1006 32.1638 31.2221 45.7456 30.2267 63.1702C29.7028 72.2773 32.8461 81.0159 39.0805 87.5436L42.119 90.7548L38.5566 93.3342C32.7937 97.493 28.1311 103.073 25.1449 109.495L24.9354 109.917C24.883 110.074 24.7782 110.232 24.7258 110.39C23.3113 113.549 24.7258 117.234 27.8692 118.655C28.655 119.024 29.5456 119.182 30.4362 119.182C32.8985 119.182 35.0989 117.708 36.1467 115.444L36.3562 114.97C41.2284 104.547 51.811 97.8088 63.1795 97.8088C73.8669 97.8088 83.8209 103.757 89.0598 113.075C89.1122 113.128 89.1122 113.18 89.1646 113.286C89.217 113.391 89.3217 113.549 89.4265 113.759C90.16 115.076 91.6793 117.76 93.9844 118.603C94.0368 118.603 94.1416 118.655 94.1939 118.708C94.7702 118.866 95.3989 118.971 96.0276 118.971C97.2849 118.971 98.4899 118.603 99.5377 117.918C115.988 106.653 123.584 86.1749 123.899 85.28C124.318 84.1745 124.632 83.1743 124.789 82.4373L124.894 82.0161C127.252 73.5407 127.933 65.0127 126.885 56.5372Z" fill="url(#paint0_linear_224_327)"/>
</g>
<path d="M599.105 92.38V48.5986H628.607V56.2304H608.362V66.6627H627.089V74.2945H608.362V84.7482H628.692V92.38H599.105Z" fill="#29ABE2"/>
<path d="M564.953 92.38V48.5986H574.21V84.7482H592.979V92.38H564.953Z" fill="#29ABE2"/>
<path d="M525.973 92.38V48.5986H543.246C546.566 48.5986 549.395 49.2328 551.733 50.5012C554.07 51.7553 555.852 53.5012 557.077 55.7387C558.317 57.962 558.937 60.5273 558.937 63.4347C558.937 66.342 558.31 68.9074 557.056 71.1306C555.802 73.3539 553.985 75.0855 551.604 76.3254C549.239 77.5653 546.374 78.1853 543.011 78.1853H532.001V70.7672H541.514C543.296 70.7672 544.764 70.4608 545.918 69.848C547.087 69.2209 547.956 68.3587 548.526 67.2613C549.11 66.1496 549.403 64.8741 549.403 63.4347C549.403 61.981 549.11 60.7126 548.526 59.6295C547.956 58.5321 547.087 57.6841 545.918 57.0855C544.749 56.4727 543.267 56.1663 541.471 56.1663H535.229V92.38H525.973Z" fill="#29ABE2"/>
<path d="M470.891 48.5986H482.306L494.363 78.0143H494.876L506.933 48.5986H518.349V92.38H509.37V63.8836H509.007L497.677 92.1663H491.563L480.233 63.7767H479.869V92.38H470.891V48.5986Z" fill="#29ABE2"/>
<path d="M433.408 92.38H423.488L438.602 48.5986H450.531L465.624 92.38H455.704L444.738 58.6033H444.396L433.408 92.38ZM432.788 75.171H456.218V82.3967H432.788V75.171Z" fill="#29ABE2"/>
<path d="M411.162 61.19C410.99 59.4656 410.257 58.1259 408.96 57.171C407.663 56.2162 405.903 55.7387 403.679 55.7387C402.169 55.7387 400.893 55.9525 399.853 56.38C398.812 56.7934 398.014 57.3705 397.458 58.1116C396.917 58.8527 396.646 59.6936 396.646 60.6342C396.618 61.4181 396.781 62.1021 397.138 62.6865C397.508 63.2708 398.014 63.7767 398.656 64.2043C399.297 64.6176 400.038 64.981 400.879 65.2945C401.72 65.5938 402.618 65.8504 403.572 66.0641L407.506 67.0047C409.416 67.4323 411.169 68.0024 412.765 68.715C414.361 69.4276 415.743 70.304 416.912 71.3444C418.081 72.3848 418.986 73.6105 419.627 75.0214C420.283 76.4323 420.618 78.0499 420.632 79.8741C420.618 82.5534 419.933 84.8765 418.58 86.8432C417.24 88.7957 415.302 90.3135 412.765 91.3967C410.242 92.4656 407.2 93 403.637 93C400.102 93 397.024 92.4584 394.401 91.3753C391.793 90.2922 389.755 88.6888 388.287 86.5653C386.834 84.4276 386.071 81.7838 386 78.6342H394.957C395.057 80.1021 395.477 81.3278 396.219 82.3112C396.974 83.2803 397.979 84.0142 399.233 84.5131C400.501 84.9976 401.933 85.2399 403.53 85.2399C405.097 85.2399 406.458 85.0119 407.613 84.5558C408.781 84.0998 409.686 83.4656 410.328 82.6532C410.969 81.8409 411.29 80.9074 411.29 79.8527C411.29 78.8694 410.998 78.0428 410.413 77.3729C409.843 76.7031 409.002 76.133 407.891 75.6627C406.793 75.1924 405.447 74.7648 403.85 74.38L399.083 73.1829C395.392 72.285 392.477 70.8812 390.34 68.9715C388.202 67.0618 387.14 64.4893 387.154 61.2542C387.14 58.6033 387.846 56.2874 389.271 54.3064C390.71 52.3254 392.684 50.7791 395.192 49.6675C397.701 48.5558 400.551 48 403.743 48C406.993 48 409.829 48.5558 412.252 49.6675C414.689 50.7791 416.584 52.3254 417.938 54.3064C419.292 56.2874 419.99 58.5819 420.033 61.19H411.162Z" fill="#29ABE2"/>
<defs>
<linearGradient id="paint0_linear_224_327" x1="0.226543" y1="59.6431" x2="127.363" y2="59.6431" gradientUnits="userSpaceOnUse">
<stop stop-color="#29ABE2"/>
<stop offset="0.2852" stop-color="#2595CB"/>
<stop offset="0.9096" stop-color="#10669E"/>
<stop offset="1" stop-color="#0B6099"/>
</linearGradient>
<clipPath id="clip0_224_327">
<rect width="360" height="118.621" fill="white"/>
</clipPath>
</defs>
</svg>
